<mxfile host="app.diagrams.net" modified="2023-05-24T09:49:42.379Z" agent="Mozilla/5.0 (Windows NT 10.0; Win64; x64) AppleWebKit/537.36 (KHTML, like Gecko) Chrome/113.0.0.0 Safari/537.36 Edg/113.0.1774.50" etag="8lkigIpYTod8T5k6-n3W" version="21.3.3" type="github">
  <diagram name="Page-1" id="yDpeMAluyHdcwSC74vl1">
    <mxGraphModel dx="1423" dy="843" grid="1" gridSize="10" guides="1" tooltips="1" connect="1" arrows="1" fold="1" page="1" pageScale="1" pageWidth="850" pageHeight="1100" math="0" shadow="0">
      <root>
        <mxCell id="0" />
        <mxCell id="1" parent="0" />
        <mxCell id="y5-IMhGnqisoFsetXzi4-3" value="" style="whiteSpace=wrap;html=1;aspect=fixed;" vertex="1" parent="1">
          <mxGeometry x="310" y="230" width="182.5" height="182.5" as="geometry" />
        </mxCell>
        <mxCell id="y5-IMhGnqisoFsetXzi4-4" value="" style="shape=note;whiteSpace=wrap;html=1;backgroundOutline=1;darkOpacity=0.05;" vertex="1" parent="1">
          <mxGeometry x="40" y="320" width="60" height="70" as="geometry" />
        </mxCell>
        <mxCell id="y5-IMhGnqisoFsetXzi4-5" value="" style="shape=note;whiteSpace=wrap;html=1;backgroundOutline=1;darkOpacity=0.05;" vertex="1" parent="1">
          <mxGeometry x="30" y="330" width="60" height="70" as="geometry" />
        </mxCell>
        <mxCell id="y5-IMhGnqisoFsetXzi4-6" value="" style="shape=note;whiteSpace=wrap;html=1;backgroundOutline=1;darkOpacity=0.05;" vertex="1" parent="1">
          <mxGeometry x="20" y="340" width="60" height="70" as="geometry" />
        </mxCell>
        <mxCell id="y5-IMhGnqisoFsetXzi4-7" value="PDF files" style="text;html=1;strokeColor=none;fillColor=none;align=center;verticalAlign=middle;whiteSpace=wrap;rounded=0;" vertex="1" parent="1">
          <mxGeometry x="20" y="370" width="60" height="30" as="geometry" />
        </mxCell>
        <mxCell id="y5-IMhGnqisoFsetXzi4-8" value="" style="endArrow=classic;html=1;rounded=0;exitX=0;exitY=0;exitDx=60;exitDy=30;exitPerimeter=0;" edge="1" parent="1" source="y5-IMhGnqisoFsetXzi4-6" target="y5-IMhGnqisoFsetXzi4-9">
          <mxGeometry width="50" height="50" relative="1" as="geometry">
            <mxPoint x="400" y="330" as="sourcePoint" />
            <mxPoint x="150" y="310" as="targetPoint" />
          </mxGeometry>
        </mxCell>
        <object label="" id="y5-IMhGnqisoFsetXzi4-9">
          <mxCell style="shape=step;perimeter=stepPerimeter;whiteSpace=wrap;html=1;fixedSize=1;" vertex="1" parent="1">
            <mxGeometry x="130" y="330" width="120" height="80" as="geometry" />
          </mxCell>
        </object>
        <mxCell id="y5-IMhGnqisoFsetXzi4-10" value="Data Process&amp;nbsp; Data&lt;br&gt;Verfication" style="text;html=1;strokeColor=none;fillColor=none;align=center;verticalAlign=middle;whiteSpace=wrap;rounded=0;" vertex="1" parent="1">
          <mxGeometry x="160" y="365" width="60" height="15" as="geometry" />
        </mxCell>
        <mxCell id="y5-IMhGnqisoFsetXzi4-11" value="Wrapper" style="text;html=1;strokeColor=none;fillColor=none;align=center;verticalAlign=middle;whiteSpace=wrap;rounded=0;" vertex="1" parent="1">
          <mxGeometry x="310" y="230" width="60" height="30" as="geometry" />
        </mxCell>
        <mxCell id="y5-IMhGnqisoFsetXzi4-12" value="" style="rounded=1;whiteSpace=wrap;html=1;" vertex="1" parent="1">
          <mxGeometry x="348.12" y="260" width="106.25" height="40" as="geometry" />
        </mxCell>
        <mxCell id="y5-IMhGnqisoFsetXzi4-13" value="Extraction Rules" style="text;html=1;strokeColor=none;fillColor=none;align=center;verticalAlign=middle;whiteSpace=wrap;rounded=0;" vertex="1" parent="1">
          <mxGeometry x="351.25" y="265" width="100" height="30" as="geometry" />
        </mxCell>
        <mxCell id="y5-IMhGnqisoFsetXzi4-33" value="" style="verticalLabelPosition=bottom;verticalAlign=top;html=1;shape=mxgraph.basic.partConcEllipse;startAngle=0.25;endAngle=0.1;arcWidth=0.5;rotation=25;direction=south;" vertex="1" parent="1">
          <mxGeometry x="359.07" y="321.38000000000005" width="84.37" height="87.23" as="geometry" />
        </mxCell>
        <mxCell id="y5-IMhGnqisoFsetXzi4-34" value="Exatractor" style="text;html=1;strokeColor=none;fillColor=none;align=center;verticalAlign=middle;whiteSpace=wrap;rounded=0;" vertex="1" parent="1">
          <mxGeometry x="371.25" y="350" width="60" height="30" as="geometry" />
        </mxCell>
        <mxCell id="y5-IMhGnqisoFsetXzi4-37" value="" style="endArrow=classic;html=1;rounded=0;" edge="1" parent="1">
          <mxGeometry width="50" height="50" relative="1" as="geometry">
            <mxPoint x="250" y="370" as="sourcePoint" />
            <mxPoint x="350" y="370" as="targetPoint" />
          </mxGeometry>
        </mxCell>
        <mxCell id="y5-IMhGnqisoFsetXzi4-39" value="" style="rounded=0;whiteSpace=wrap;html=1;" vertex="1" parent="1">
          <mxGeometry x="540" y="230" width="100" height="180" as="geometry" />
        </mxCell>
        <mxCell id="y5-IMhGnqisoFsetXzi4-40" value="" style="strokeWidth=2;html=1;shape=mxgraph.flowchart.database;whiteSpace=wrap;" vertex="1" parent="1">
          <mxGeometry x="560" y="250" width="60" height="80" as="geometry" />
        </mxCell>
        <mxCell id="y5-IMhGnqisoFsetXzi4-41" value="DB" style="text;html=1;strokeColor=none;fillColor=none;align=center;verticalAlign=middle;whiteSpace=wrap;rounded=0;" vertex="1" parent="1">
          <mxGeometry x="560" y="285" width="60" height="30" as="geometry" />
        </mxCell>
        <mxCell id="y5-IMhGnqisoFsetXzi4-42" value="" style="strokeWidth=2;html=1;shape=mxgraph.flowchart.multi-document;whiteSpace=wrap;" vertex="1" parent="1">
          <mxGeometry x="560" y="355" width="57" height="45" as="geometry" />
        </mxCell>
        <mxCell id="y5-IMhGnqisoFsetXzi4-43" value="Json" style="text;html=1;strokeColor=none;fillColor=none;align=center;verticalAlign=middle;whiteSpace=wrap;rounded=0;" vertex="1" parent="1">
          <mxGeometry x="557" y="362.5" width="60" height="30" as="geometry" />
        </mxCell>
        <mxCell id="y5-IMhGnqisoFsetXzi4-45" value="" style="endArrow=none;html=1;rounded=0;exitX=0.363;exitY=0.006;exitDx=0;exitDy=0;exitPerimeter=0;" edge="1" parent="1" source="y5-IMhGnqisoFsetXzi4-33">
          <mxGeometry width="50" height="50" relative="1" as="geometry">
            <mxPoint x="570" y="380" as="sourcePoint" />
            <mxPoint x="540" y="372" as="targetPoint" />
          </mxGeometry>
        </mxCell>
        <mxCell id="y5-IMhGnqisoFsetXzi4-46" value="" style="rounded=0;whiteSpace=wrap;html=1;" vertex="1" parent="1">
          <mxGeometry x="710" y="320" width="120" height="88.61" as="geometry" />
        </mxCell>
        <mxCell id="y5-IMhGnqisoFsetXzi4-47" value="Data&lt;br&gt;&lt;br&gt;Integration" style="text;html=1;strokeColor=none;fillColor=none;align=center;verticalAlign=middle;whiteSpace=wrap;rounded=0;" vertex="1" parent="1">
          <mxGeometry x="740" y="349.31" width="60" height="30" as="geometry" />
        </mxCell>
        <mxCell id="y5-IMhGnqisoFsetXzi4-48" value="" style="endArrow=classic;html=1;rounded=0;exitX=0.994;exitY=0.795;exitDx=0;exitDy=0;exitPerimeter=0;entryX=-0.018;entryY=0.605;entryDx=0;entryDy=0;entryPerimeter=0;" edge="1" parent="1" source="y5-IMhGnqisoFsetXzi4-39" target="y5-IMhGnqisoFsetXzi4-46">
          <mxGeometry width="50" height="50" relative="1" as="geometry">
            <mxPoint x="690" y="350" as="sourcePoint" />
            <mxPoint x="740" y="300" as="targetPoint" />
          </mxGeometry>
        </mxCell>
        <mxCell id="y5-IMhGnqisoFsetXzi4-49" value="" style="rounded=0;whiteSpace=wrap;html=1;" vertex="1" parent="1">
          <mxGeometry x="870" y="335" width="120" height="60" as="geometry" />
        </mxCell>
        <mxCell id="y5-IMhGnqisoFsetXzi4-50" value="" style="endArrow=classic;html=1;rounded=0;exitX=0.989;exitY=0.657;exitDx=0;exitDy=0;exitPerimeter=0;" edge="1" parent="1" source="y5-IMhGnqisoFsetXzi4-46">
          <mxGeometry width="50" height="50" relative="1" as="geometry">
            <mxPoint x="830" y="350" as="sourcePoint" />
            <mxPoint x="870" y="378" as="targetPoint" />
          </mxGeometry>
        </mxCell>
        <mxCell id="y5-IMhGnqisoFsetXzi4-51" value="Application" style="text;html=1;strokeColor=none;fillColor=none;align=center;verticalAlign=middle;whiteSpace=wrap;rounded=0;" vertex="1" parent="1">
          <mxGeometry x="900" y="350" width="60" height="30" as="geometry" />
        </mxCell>
      </root>
    </mxGraphModel>
  </diagram>
</mxfile>
